<svg width="246" height="199" viewBox="0 0 246 199" fill="none" xmlns="http://www.w3.org/2000/svg">
<circle cx="138" cy="90" r="60" fill="#F9665E"/>
<g clip-path="url(#clip0)" filter="url(#filter0_i)">
<path d="M164.874 82.5775L164.921 82.3983C167.988 70.6929 160.601 61.0586 147.366 57.5899C139.732 55.589 133.099 56.1507 127.364 58.2089C124.03 59.405 122.663 63.5845 124.017 66.8597L125.005 69.2481C126.36 72.5221 129.999 73.7534 133.435 72.8822C136.566 72.0881 139.554 71.9972 142.16 72.6801C146.482 73.8128 148.418 76.3401 147.615 79.4024L147.591 79.4919C146.577 83.3644 141.434 87.9305 130.754 86.0929L130.288 86.4036C130.031 86.575 129.513 89.5706 129.131 93.0926L128.822 95.9653C128.44 99.4874 130.571 102.981 133.579 103.77C136.587 104.558 139.607 103.971 140.32 102.458C141.037 100.945 141.617 99.718 141.617 99.718C152.247 99.9045 161.9 93.9232 164.874 82.5775Z" fill="#883929"/>
<path d="M129.275 108.222C125.848 107.324 122.343 109.374 121.445 112.801L120.686 115.699C119.788 119.126 121.838 122.632 125.263 123.53L130.591 124.926C134.018 125.824 137.524 123.774 138.422 120.347L139.182 117.45C140.08 114.023 138.029 110.516 134.603 109.618L129.275 108.222Z" fill="#883929"/>
</g>
<mask id="mask0" mask-type="alpha" maskUnits="userSpaceOnUse" x="144" y="136" width="102" height="63">
<path fill-rule="evenodd" clip-rule="evenodd" d="M144.042 136.6H245.172V198.034H144.042V136.6Z" fill="white"/>
</mask>
<g mask="url(#mask0)">
<path fill-rule="evenodd" clip-rule="evenodd" d="M153.163 165.7C157.861 166.45 163.305 164.593 167.835 163.573C172.051 162.623 176.453 160.812 180.842 161.134C185.171 161.451 189.206 163.712 192.522 166.363C196.64 169.654 199.186 174.52 203.109 178.028C205.914 180.536 209.907 181.923 213.646 182.127C215.85 182.247 218.123 181.847 220.013 180.717C228.841 175.437 223.653 164.167 222.226 156.624C221.032 150.311 220.833 139.46 225.809 137.487C230.785 135.514 235.562 137.092 237.95 139.658C247.153 149.541 246.665 166.113 241.48 177.731C238.539 184.324 233.812 190.108 227.945 194.363C222.053 198.637 213.196 198.773 206.387 196.836C200.568 195.181 195.337 191.624 191.603 186.911C188.49 182.985 187.659 175.933 181.797 174.977C178.048 174.365 173.588 176.112 170.004 177.114C164.264 178.718 157.745 180.729 151.798 179.153C147.191 177.931 144.042 176.846 144.042 176.846C144.042 176.846 153.162 165.7 153.163 165.7Z" fill="#1173A8"/>
</g>
<path fill-rule="evenodd" clip-rule="evenodd" d="M132.803 170.687C132.803 171.091 132.684 171.699 132.835 172.23C133.002 172.818 133.423 173.791 133.723 173.787C134.338 173.78 135.282 173.374 135.493 172.879C136.054 171.561 136.395 170.127 136.65 168.707C137.316 165.005 138.449 161.569 141.559 159.128C142.975 158.017 144.337 156.826 145.831 155.832C150.047 153.027 152.35 149.03 153.283 144.177C153.463 143.239 153.405 142.213 153.232 141.269C153.153 140.834 152.531 140.499 152.155 140.119C151.8 140.508 151.409 140.872 151.106 141.299C150.985 141.47 151.086 141.783 151.039 142.022C150.624 144.112 149.94 146.06 148.914 147.979C146.835 151.87 143.638 154.632 140.252 157.227C137.847 159.07 136.002 161.375 134.676 163.997C133.663 166 132.511 168.089 132.803 170.687ZM129.088 113.108C130.775 118.478 134.788 123.102 139.647 126.076C144.119 128.813 149.86 130.963 151.279 136.001C151.553 136.975 151.686 138.089 152.463 138.739C153.158 139.32 154.144 139.337 155.025 139.547C157.451 140.125 159.234 142.331 159.928 144.718C160.622 147.107 160.396 149.661 159.994 152.114C158.122 163.51 152.338 174.361 143.398 181.702C134.945 188.641 124.175 192.189 113.407 194.166C92.103 198.076 69.431 196.212 49.6064 187.221C32.2707 179.36 17.8559 164.798 10.0785 147.469C8.63783 144.258 7.41824 140.949 6.44149 137.568C0.595894 117.334 3.49309 94.7452 14.2574 76.6295C28.6487 85.3337 45.8543 88.1244 62.6603 89.0468C65.1969 86.4422 69.3354 90.2967 72.9747 90.1792C73.3163 90.1684 73.691 90.1011 73.9043 89.835C74.1145 89.573 74.1019 89.199 74.0371 88.8702C73.4635 85.9552 69.7866 83.9848 70.2025 81.0432C70.531 78.7241 73.4662 77.5582 75.7251 78.2006C77.9835 78.8434 79.6652 80.6805 81.22 82.4359C84.1272 80.7406 79.7866 75.596 81.9784 73.0465C82.7318 72.1706 83.9986 71.9895 85.1497 71.8743C90.3447 71.3552 95.7962 71.0309 100.588 73.0993C105.378 75.1677 109.209 80.3788 107.96 85.4335C107.03 83.8534 106.058 82.2258 104.565 81.1593C103.071 80.0928 100.902 79.7387 99.4219 80.8242C102.706 81.2479 105.448 84.2821 105.529 87.5832C105.61 90.8844 103.02 94.0486 99.7608 94.6318C99.7802 92.6623 99.7807 90.6075 98.8964 88.8471C98.0116 87.0868 95.9443 85.7479 94.0678 86.3622C95.3459 87.5164 96.6805 88.7581 97.1635 90.4087C97.6464 92.0597 96.8681 94.2027 95.1782 94.5478C94.3818 94.7104 93.5681 94.4552 92.7767 94.2713C85.8234 92.6533 78.0116 97.3575 76.2103 104.247C75.8891 105.476 75.8556 107.032 76.9116 107.743C78.7745 108.997 80.6469 106.259 81.6214 104.238C82.9846 101.413 85.2195 99.0112 87.9436 97.4438C89.0373 96.8145 90.3819 96.314 91.5344 96.8281C92.5117 97.264 93.0512 98.2971 93.5364 99.2493C97.2319 106.498 101.992 113.206 107.617 119.094C99.6914 116.817 91.5748 114.694 83.3312 114.955C75.0877 115.215 66.5768 118.174 61.3293 124.517C53.9103 133.487 54.8408 147.225 60.7312 157.258C61.5132 158.591 62.4274 159.931 63.7911 160.663C65.1547 161.394 67.0788 161.302 68.0148 160.073C69.4351 158.207 67.7634 155.644 66.2905 153.819C64.8172 151.995 60.8092 148.778 62.7237 147.42C63.213 147.073 63.816 146.934 64.4018 146.803C67.482 146.113 73.3752 145.628 76.4559 144.938C72.5593 142.092 68.6631 139.246 64.7669 136.4C64.2247 136.005 63.6411 135.546 63.517 134.887C63.3906 134.216 63.7843 133.567 64.1757 133.006C65.1883 131.553 66.2982 130.166 67.4961 128.86C68.0402 128.266 68.6654 127.656 69.4636 127.544C70.2392 127.435 70.989 127.821 71.6758 128.196C75.1108 130.067 78.5457 131.939 81.9802 133.81C82.002 130.723 80.3991 125.6 81.958 122.933C83.5165 120.266 90.2084 117.882 92.9307 119.352C95.8492 120.929 95.0546 127.792 98.1244 129.051C98.7165 120.546 104.605 121.517 109.041 123.017C111.382 123.809 113.927 125.615 116.04 124.336C111.797 118.169 109.763 110.523 110.383 103.069C110.532 104.946 112.028 106.638 113.878 107.02C113.212 104.587 112.548 101.992 113.307 99.5872C114.066 97.1822 116.863 95.2448 119.143 96.3348C117.268 99.5555 116.977 103.644 118.376 107.097C118.915 108.427 121.145 109.501 121.399 108.089C120.309 106.458 119.674 104.528 119.582 102.571C119.541 101.684 119.619 100.755 120.076 99.9932C121.532 97.5693 125.62 98.7181 126.981 101.196C128.343 103.673 128.033 106.681 128.331 109.491C128.462 110.726 128.719 111.934 129.088 113.108Z" fill="#16ACFC"/>
<mask id="mask1" mask-type="alpha" maskUnits="userSpaceOnUse" x="0" y="0" width="100" height="79">
<path fill-rule="evenodd" clip-rule="evenodd" d="M0.571045 0.291748H99.2843V78.127H0.571045V0.291748Z" fill="white"/>
</mask>
<g mask="url(#mask1)">
<path fill-rule="evenodd" clip-rule="evenodd" d="M78.4179 57.2204H78.4495C78.4495 56.323 78.4865 55.4239 78.4423 54.5288C78.3489 52.6431 77.2902 51.9869 75.7033 53.0742C73.5697 54.5356 71.5303 56.1742 70.1437 58.447C69.9745 58.7243 69.8157 59.0169 69.7138 59.3231C69.4373 60.1554 69.6804 60.8872 70.5424 61.0505C72.5313 61.4272 74.539 61.7664 76.5545 61.9198C77.8157 62.0161 78.3119 61.4304 78.4039 60.1558C78.4739 59.182 78.4179 58.1992 78.4179 57.2204ZM19.7314 51.73C20.2804 51.1388 20.9246 50.7118 21.1857 50.1162C22.2377 47.7185 23.1908 45.2757 24.139 42.8337C24.5422 41.7952 24.0677 41.0838 23.0983 40.683C20.0057 39.4039 16.9099 38.1334 13.8096 36.8724C13.3576 36.6883 12.8853 36.5133 12.4063 36.445C11.5501 36.3224 10.9831 36.9398 11.1581 37.791C11.2393 38.1845 11.4116 38.5758 11.6164 38.9245C13.894 42.8088 16.1764 46.69 18.4896 50.5526C18.7224 50.9416 19.1653 51.2035 19.7314 51.73ZM67.2288 26.8916C68.7652 26.8594 69.5618 25.9928 69.1698 24.3967C68.2351 20.5933 67.1074 16.8374 66.0524 13.0643C66.009 12.9092 65.9211 12.7636 65.8394 12.6225C65.2102 11.5342 64.2214 11.2579 63.188 11.9485C62.7906 12.214 62.4031 12.5795 62.1676 12.9893C60.4585 15.9672 58.7335 18.9379 57.1331 21.9746C56.4235 23.3216 56.7036 23.9123 58.1543 24.375C60.8735 25.2425 63.6296 25.9951 66.3744 26.7812C66.6843 26.8698 67.0204 26.8662 67.2288 26.8916ZM80.3892 47.1323C80.5367 46.9546 80.6842 46.7764 80.8317 46.5986C81.0734 46.3874 81.3946 46.2219 81.5444 45.9586C82.8818 43.6026 82.4299 40.7197 80.4013 38.469C77.6425 35.4065 72.1596 34.8262 68.7246 37.2343C65.678 39.3696 64.7713 43.1141 66.5643 46.3639C68.9393 50.6702 74.9053 51.8896 79.0409 47.8072C79.3043 47.5471 80.2304 47.4983 80.3892 47.1323ZM65.3094 56.6324C65.7731 55.8906 66.2359 55.1493 66.6992 54.4076C67.1426 52.6694 66.9906 51.0198 66.0686 49.444C63.2001 44.5411 56.4411 43.9405 52.4589 48.25C50.711 50.1424 50.1976 52.3641 50.7777 54.8445C51.4805 57.8509 53.4418 59.671 56.3486 60.4358C59.4146 61.2431 62.1825 60.5498 64.4803 58.3367C64.9075 57.926 65.041 57.2082 65.3094 56.6324ZM17.7133 66.4093C17.6934 65.7661 17.5283 65.0859 17.679 64.4857C18.3191 61.9365 17.5937 59.5918 16.6753 57.2932C16.3808 56.5564 15.8792 55.7721 15.2495 55.3266C13.6919 54.2253 12.8732 52.6526 12.0707 51.0298C8.39253 43.5945 4.70989 36.1609 1.03581 28.7229C-1.36351 23.8661 6.19576 27.2281 8.46787 27.7677C11.0097 28.3715 13.5593 28.9699 16.1223 29.4773C17.9627 29.8414 20.1198 30.751 21.9932 30.5832C24.0375 30.4009 25.5658 28.7148 27.0652 27.3086C29.6305 24.9028 32.7055 23.0579 36.0129 21.8787C39.354 20.6878 43.2311 21.2161 46.3828 19.9067C48.6955 18.9456 50.1331 16.481 51.7764 14.7216C54.5583 11.7427 57.3509 8.77385 60.1418 5.80315C61.8076 4.0306 67.6244 -3.43277 69.0863 2.61626C70.3949 8.03117 71.5668 13.4787 72.787 18.9144C73.3067 21.2306 73.7902 23.5549 74.3207 25.8689C74.6793 27.4352 74.8011 27.5216 76.2613 27.2145C86.4048 25.0778 95.3421 31.8383 97.9647 41.5356C100.392 50.5065 99.673 61.6891 94.1125 69.3144C93.9708 69.5089 93.7651 69.6577 93.5901 69.8278C93.4291 69.8535 93.2694 69.8848 93.1106 69.9214C91.042 69.3329 88.9534 69.1231 86.8248 69.5591C86.2672 69.6731 85.7025 69.7631 85.1373 69.8183C81.7636 70.1457 78.6782 71.3751 75.6613 72.8265C72.8461 74.1811 70.482 76.183 68.0773 78.127C66.7827 78.0252 65.4876 77.9234 64.193 77.8217C63.8858 77.2889 63.557 77.0926 63.1699 77.7529C61.1946 77.5182 59.2193 77.2834 57.244 77.0487C56.3974 76.9714 55.5507 76.8945 54.704 76.8167C53.4098 76.6561 52.1152 76.4955 50.821 76.335C50.6641 76.3096 50.5071 76.2843 50.3497 76.259C43.8171 75.1273 37.4049 73.5108 31.1912 71.1932C27.5203 69.8241 23.945 68.1977 20.2939 66.7716C19.5059 66.464 18.5771 66.5206 17.7133 66.4093Z" fill="#19ACFC"/>
</g>
<path fill-rule="evenodd" clip-rule="evenodd" d="M114.877 123.274C115.515 123.678 116.153 124.083 116.792 124.487C116.013 125.289 115.121 124.884 114.284 124.673C110.954 123.832 107.61 123.109 104.17 122.845C102.699 122.732 101.871 123.293 101.324 124.61C100.822 125.819 100.235 127.007 99.5548 128.126C98.7554 129.44 98.0964 129.415 97.2129 128.147C96.2755 126.803 95.282 125.487 94.4682 124.071C93.5534 122.476 92.3653 121.649 90.4674 121.893C89.0109 122.081 87.5389 122.204 86.0702 122.242C84.8223 122.273 84.3131 122.992 84.1447 124.045C83.7206 126.7 83.2689 129.354 82.9833 132.026C82.7999 133.738 82.5999 134.024 81.118 133.246C78.796 132.026 76.541 130.68 74.2621 129.381C73.9059 129.177 73.5723 128.936 73.226 128.717C70.3251 126.871 70.2799 126.828 67.8873 129.332C66.7069 130.566 65.5988 131.912 64.6981 133.357C63.6471 135.041 63.9463 135.909 65.6427 136.984C68.2041 138.607 70.8185 140.149 73.3632 141.797C74.2358 142.362 75.0401 143.079 75.7462 143.845C76.7578 144.943 76.5139 145.636 75.0374 145.94C73.7583 146.202 72.447 146.305 71.1593 146.534C69.3905 146.848 67.6248 147.186 65.8695 147.57C64.847 147.793 64.4682 148.354 64.9258 149.38C65.855 151.466 66.9617 153.474 68.0127 155.504C68.2372 155.939 68.5581 156.322 68.7966 156.751C70.0146 158.932 69.9974 159.259 67.8298 160.358C64.9303 161.828 64.4627 161.767 62.4712 159.162C61.3876 157.744 60.5385 156.102 59.8292 154.455C57.9744 150.15 56.5092 145.732 56.7758 140.934C56.8256 140.034 56.7998 139.128 56.7749 138.226C56.616 132.461 59.0833 127.683 62.8595 123.659C66.6417 119.628 71.5201 117.218 76.9375 116.054C80.4635 115.297 84.0474 114.725 87.6661 115.049C93.2913 115.554 98.9116 116.135 104.245 118.224C105.528 118.727 106.9 119.002 108.231 119.381L108.178 119.371C108.408 119.528 108.638 119.686 108.868 119.842L114.877 123.274Z" fill="#1174A9"/>
<path fill-rule="evenodd" clip-rule="evenodd" d="M57.4082 77.3824C59.4062 77.6191 61.4042 77.8558 63.4026 78.092L64.437 78.1613C65.7465 78.2644 67.0564 78.367 68.3663 78.4696C68.1045 78.968 67.9553 79.5941 67.561 79.9421C65.8341 81.4679 64.9996 83.562 63.9173 85.4901C63.3168 86.5595 62.9194 87.7424 62.4303 88.8738C46.8867 88.815 32.0954 85.4595 18.073 78.7482C16.6636 78.0737 15.1556 77.5101 14.369 75.9897C14.2846 74.9322 14.0962 73.871 14.1354 72.8185C14.2313 70.2557 15.0119 68.0074 17.4233 66.6553C18.297 66.7671 19.2369 66.7101 20.0336 67.0202C23.7266 68.458 27.343 70.0979 31.0565 71.4787C37.3411 73.8154 43.827 75.4448 50.4351 76.5862C50.5939 76.6117 50.7526 76.6373 50.9114 76.6628C52.2209 76.8247 53.5299 76.9866 54.8394 77.1485C55.6958 77.2264 56.5522 77.3044 57.4082 77.3824Z" fill="#CE3429"/>
<path fill-rule="evenodd" clip-rule="evenodd" d="M114.186 42.7724C113.983 41.0633 113.199 39.8879 111.689 39.3018C111.356 39.1728 110.934 39.2827 110.552 39.2827C110.577 39.7261 110.424 40.3396 110.654 40.5861C112.165 42.2082 112.155 43.7405 110.693 45.3854C110.449 45.6588 110.558 46.255 110.505 46.7016C111.037 46.718 111.726 46.9605 112.072 46.7112C113.402 45.7536 113.935 44.281 114.186 42.7724ZM98.4723 48.3369C98.3301 47.5448 98.0479 46.7485 98.0704 45.9614C98.1888 41.9138 96.4947 38.5183 94.4933 35.2108C94.126 34.6038 93.8604 33.9338 93.5474 33.293C96.7719 31.2302 100.357 30.1938 104.066 29.578C109.098 28.7431 114.135 28.579 118.998 30.4385C120.646 31.0693 122.199 32.046 123.668 33.0555C125.387 34.236 126.222 36.126 126.415 38.1337C126.736 41.5013 125.835 44.4921 123.025 46.6332C123.364 44.8703 123.839 43.1152 123.002 41.3482C122.198 39.6495 120.939 38.4304 119.254 37.708C118.877 37.5462 118.343 37.7595 117.881 37.8005C118.034 38.2175 118.094 38.7134 118.358 39.0352C118.926 39.727 119.626 40.3049 120.225 40.9722C121.833 42.7642 121.918 44.2067 120.577 46.2167C119.777 47.4153 119.864 47.5817 121.495 47.9755C118.801 50.3377 114.045 50.9521 111.073 49.3127C110.792 49.1577 110.445 49.0069 110.291 48.7525C109.039 46.6957 107.078 46.7435 105.132 47.0334C102.897 47.3666 100.691 47.8939 98.4723 48.3369Z" fill="#1775A7"/>
<path fill-rule="evenodd" clip-rule="evenodd" d="M92.5419 96.2773C90.8177 95.5926 89.2466 95.8621 87.7072 96.8966C84.6348 98.961 82.4723 101.715 81.1648 105.191C80.604 106.682 78.9308 107.521 77.5132 107.134C76.2451 106.789 76.0535 106.266 76.1283 104.849C76.2343 102.842 77.1726 101.22 78.3086 99.7414C81.2392 95.928 84.8971 93.2199 89.8195 92.6508C91.0948 92.5032 92.2478 92.8466 93.1986 93.6979C93.9197 94.3438 94.665 94.8456 95.5911 94.2918C96.5194 93.7362 97.2231 92.9857 97.2253 91.7449C97.2294 89.6796 96.8381 87.8448 94.947 86.6348C94.6811 86.4646 94.3982 85.9063 94.4917 85.6883C94.6063 85.4211 95.1238 85.1607 95.4407 85.1891C95.9729 85.237 96.6416 85.3651 96.9773 85.7231C98.3739 87.2111 99.6384 88.8121 99.6272 91.0336C99.6259 91.2796 99.6348 91.526 99.6263 91.772C99.544 94.258 99.8143 94.0869 101.941 93.3336C103.036 92.9455 103.966 92.3095 104.103 90.9338C104.147 90.4843 104.465 90.0488 104.705 89.6349C106.618 86.3328 105.532 82.9893 102.023 81.3676C101.372 81.067 100.685 80.7872 100.134 80.3466C99.689 79.9905 99.7024 79.3925 100.4 79.2891C101.441 79.1352 102.434 79.1777 103.439 79.787C105.105 80.798 106.246 82.2342 107.276 83.822C107.491 84.1528 107.784 84.4322 108.04 84.7355C108.311 88.1116 106.968 90.9654 105.01 93.5219C104.36 94.3699 103.283 95.0867 102.261 95.4008C100.184 96.0395 98.0266 96.4922 95.8708 96.7616C94.7975 96.8961 93.6533 96.4569 92.5419 96.2773Z" fill="#157BB1"/>
<path fill-rule="evenodd" clip-rule="evenodd" d="M122.603 98.2645C120.813 98.8572 120.135 99.6054 120.074 101.472C120.01 103.487 119.729 105.572 121.182 107.31C121.588 107.796 121.692 108.597 120.99 109.001C120.382 109.351 119.763 109.099 119.393 108.479C118.027 106.188 117.382 103.703 117.988 101.007C118.324 99.5125 118.858 98.0683 119.302 96.6019C120.616 96.6708 122.031 96.5086 122.603 98.2645Z" fill="#157BB1"/>
<path fill-rule="evenodd" clip-rule="evenodd" d="M114.854 95.7606C114.672 96.2405 114.612 96.8635 114.288 97.177C112.434 98.97 112.35 101.151 112.931 103.504C113.025 103.883 113.349 104.222 113.369 104.592C113.395 105.088 113.381 105.74 113.11 106.064C112.722 106.527 111.76 106.129 111.468 105.384C111.185 104.66 111.068 103.863 110.86 103.104C110.791 102.852 110.665 102.617 110.566 102.374C110.482 102.659 110.409 102.947 110.313 103.226C110.263 103.371 110.173 103.499 110.101 103.634C109.689 100.828 110.75 98.5459 112.426 96.5377C113.034 95.8098 113.876 95.4199 114.854 95.7606Z" fill="#157BB1"/>
<path fill-rule="evenodd" clip-rule="evenodd" d="M122.487 48.301C120.791 47.8963 120.7 47.7247 121.532 46.4913C122.926 44.4236 122.838 42.9389 121.166 41.0954C120.543 40.4084 119.815 39.8138 119.225 39.1023C118.95 38.7708 118.888 38.2606 118.729 37.8315C119.209 37.7897 119.763 37.5698 120.156 37.7363C121.909 38.4796 123.217 39.734 124.054 41.4819C124.923 43.3005 124.429 45.1065 124.078 46.9204C123.547 47.3804 123.017 47.841 122.487 48.301Z" fill="#0E5A82"/>
<path fill-rule="evenodd" clip-rule="evenodd" d="M127.445 190.306C129.705 189.34 131.965 188.374 134.225 187.408C132.253 189.049 129.932 189.872 127.445 190.306Z" fill="#19ACFC"/>
<path fill-rule="evenodd" clip-rule="evenodd" d="M92.5789 69.6456C92.7494 69.6092 92.9209 69.5791 93.0934 69.5534C93.7975 69.8312 94.5146 70.0846 95.2022 70.3929C95.9561 70.7305 96.6829 71.1191 97.4214 71.4854C95.8219 71.3158 94.2229 71.1461 92.6239 70.9764C92.6089 70.5329 92.5939 70.089 92.5789 69.6456Z" fill="#1893D4"/>
<path fill-rule="evenodd" clip-rule="evenodd" d="M121.634 191.265C122.925 190.945 124.217 190.625 125.508 190.306C124.388 191.012 123.094 191.325 121.634 191.265Z" fill="#19ACFC"/>
<path fill-rule="evenodd" clip-rule="evenodd" d="M109.916 106.262C109.98 106.906 110.044 107.55 110.108 108.194C110.044 107.55 109.98 106.906 109.916 106.262Z" fill="#157BB1"/>
<path fill-rule="evenodd" clip-rule="evenodd" d="M115.823 193.289C116.146 193.232 116.468 193.176 116.792 193.119C116.468 193.176 116.146 193.232 115.823 193.289Z" fill="#19ACFC"/>
<path fill-rule="evenodd" clip-rule="evenodd" d="M117.76 192.404C118.083 192.293 118.406 192.182 118.729 192.072C118.406 192.182 118.083 192.293 117.76 192.404Z" fill="#19ACFC"/>
<path fill-rule="evenodd" clip-rule="evenodd" d="M40.2798 181.612C40.6025 181.934 40.9251 182.255 41.2483 182.578C40.9251 182.255 40.6025 181.934 40.2798 181.612Z" fill="#19ACFC"/>
<path fill-rule="evenodd" clip-rule="evenodd" d="M128.543 113.024C128.457 112.703 128.37 112.381 128.284 112.058C128.37 112.381 128.457 112.703 128.543 113.024Z" fill="#157BB1"/>
<path fill-rule="evenodd" clip-rule="evenodd" d="M108.075 119.056C107.752 118.899 107.429 118.742 107.106 118.585C107.429 118.742 107.752 118.899 108.075 119.056Z" fill="#16ACFC"/>
<path fill-rule="evenodd" clip-rule="evenodd" d="M92.537 70.1356C92.551 70.5789 92.565 71.0226 92.579 71.4659C90.8582 71.4615 89.1332 71.3769 87.4191 71.4783C86.1319 71.5541 84.8199 71.7396 83.5897 72.105C81.277 72.7914 80.9033 73.5669 81.4807 75.8476C81.638 76.4689 81.8526 77.0805 81.9569 77.7094C82.1137 78.6522 82.2822 79.6079 82.2741 80.557C82.27 81.0308 81.9818 81.6026 81.6271 81.9227C81.488 82.0481 80.7601 81.6778 80.396 81.4095C78.7695 80.208 77.1747 78.9662 75.5758 77.7302C74.7449 77.0876 73.9435 77.1089 73.1257 77.755C72.3644 78.3568 71.5313 78.8821 70.827 79.541C69.6492 80.6433 69.5638 81.1243 70.3666 82.4892C71.0999 83.7363 71.9727 84.9045 72.7661 86.1188C73.1619 86.7251 73.5897 87.3287 73.8644 87.9886C74.0605 88.4589 74.2674 89.2388 74.0338 89.4877C73.7361 89.8052 72.9436 89.9181 72.4607 89.7848C70.5031 89.2441 68.5301 88.6958 66.6642 87.916C65.1696 87.2915 64.07 87.2322 63.0769 88.6808C62.3518 89.7379 61.9149 89.0205 61.5869 88.2742C62.0708 87.1751 62.4643 86.0263 63.0589 84.9878C64.1305 83.1158 64.9568 81.0822 66.6669 79.6004C67.0577 79.262 67.2054 78.654 67.4643 78.1699C69.8728 76.2665 72.2407 74.306 75.0598 72.9801C78.0819 71.5589 81.1722 70.3552 84.5507 70.0346C85.1172 69.9806 85.6829 69.8925 86.2408 69.7809C88.3733 69.3539 90.4651 69.5594 92.537 70.1356Z" fill="#1775A7"/>
<path fill-rule="evenodd" clip-rule="evenodd" d="M133.302 170.77C133.014 168.161 134.149 166.063 135.147 164.052C136.454 161.419 138.273 159.104 140.643 157.253C143.98 154.647 147.132 151.874 149.181 147.966C150.191 146.039 150.866 144.082 151.274 141.984C151.321 141.744 151.222 141.43 151.341 141.258C151.639 140.829 152.025 140.464 152.374 140.073C152.745 140.455 153.358 140.791 153.436 141.227C153.607 142.176 153.664 143.206 153.486 144.148C152.567 149.022 150.297 153.035 146.142 155.852C144.67 156.85 143.326 158.046 141.931 159.162C138.866 161.613 137.749 165.064 137.093 168.782C136.842 170.207 136.506 171.648 135.953 172.972C135.745 173.468 134.814 173.876 134.208 173.883C133.912 173.887 133.498 172.91 133.333 172.32C133.184 171.786 133.302 171.176 133.302 170.77Z" fill="#157BB1"/>
<path fill-rule="evenodd" clip-rule="evenodd" d="M77.8315 49.069C77.1243 49.4897 76.3604 49.8156 75.552 50.0209C73.4807 50.5454 71.1196 50.0562 69.2949 49.0067C68.0878 48.3122 67.0435 47.3241 66.3648 46.1095C64.5927 42.9369 65.4886 39.282 68.5003 37.1972C71.8959 34.8471 77.3164 35.4131 80.0436 38.4026C81.0639 39.5213 81.784 40.9333 81.9071 42.449C82.0391 44.0835 81.4425 45.6137 80.3941 46.8654C79.6673 47.7334 78.8031 48.4906 77.8315 49.069Z" fill="#EAEAEA"/>
<path fill-rule="evenodd" clip-rule="evenodd" d="M63.9378 58.3693C63.2381 59.111 62.4008 59.7258 61.4338 60.1587C57.0319 62.1285 51.4178 59.7933 50.2277 55.0468C50.2164 55.001 50.205 54.9552 50.1946 54.9094C49.6107 52.4232 50.1274 50.1964 51.8868 48.3C55.895 43.9805 62.6982 44.5826 65.5854 49.4964C66.2992 50.7114 66.5939 52.0855 66.3391 53.4791C66.0054 55.3061 65.1913 57.0415 63.9378 58.3693Z" fill="#EAEAEA"/>
<path fill-rule="evenodd" clip-rule="evenodd" d="M67.2817 27.0485C67.0719 27.023 66.7337 27.0266 66.4213 26.9372C63.6592 26.1446 60.8852 25.3848 58.148 24.51C56.6884 24.0432 56.406 23.4468 57.1206 22.0879C58.7314 19.0247 60.4671 16.0271 62.1873 13.0232C62.4243 12.6093 62.8147 12.2406 63.2147 11.9727C64.2548 11.2764 65.2496 11.5547 65.8833 12.6526C65.9655 12.7955 66.0541 12.9419 66.0976 13.0985C67.1591 16.9051 68.2941 20.6943 69.2353 24.5315C69.6298 26.1418 68.8276 27.0161 67.2817 27.0485Z" fill="#C58CDC"/>
<path fill-rule="evenodd" clip-rule="evenodd" d="M19.1244 52.1651C18.5406 51.6332 18.084 51.3682 17.8446 50.9757C15.4603 47.0738 13.1084 43.1526 10.7608 39.2292C10.5502 38.8769 10.3722 38.4817 10.289 38.0842C10.1081 37.2243 10.6929 36.6006 11.5753 36.7244C12.0685 36.7934 12.5557 36.9702 13.0215 37.1562C16.2166 38.4296 19.4071 39.7135 22.5943 41.0056C23.5933 41.4104 24.0824 42.1291 23.6668 43.1782C22.6891 45.645 21.7073 48.1123 20.6232 50.5348C20.354 51.1366 19.6902 51.5679 19.1244 52.1651Z" fill="#C58CDC"/>
<path fill-rule="evenodd" clip-rule="evenodd" d="M78.0059 56.9755C78.0059 57.9834 78.061 58.9955 77.9922 59.9983C77.9016 61.3108 77.4134 61.9139 76.1724 61.8147C74.1893 61.6568 72.2138 61.3075 70.2569 60.9195C69.4087 60.7514 69.1695 59.9978 69.4415 59.1408C69.5418 58.8255 69.6981 58.5242 69.8645 58.2387C71.2289 55.8983 73.2355 54.2108 75.3349 52.706C76.8963 51.5863 77.938 52.2621 78.0299 54.2039C78.0734 55.1256 78.037 56.0515 78.037 56.9755H78.0059Z" fill="#C58CDC"/>
<path fill-rule="evenodd" clip-rule="evenodd" d="M56.7444 77.3973C55.7762 77.3202 54.8075 77.243 53.8389 77.1658C54.8075 77.243 55.7762 77.3202 56.7444 77.3973Z" fill="#1775A7"/>
<path fill-rule="evenodd" clip-rule="evenodd" d="M63.5237 78.2476L62.5552 78.1113C62.9216 76.802 63.2329 77.1912 63.5237 78.2476Z" fill="#1775A7"/>
<path fill-rule="evenodd" clip-rule="evenodd" d="M50.2008 76.3534C50.0434 76.3282 49.886 76.3029 49.7285 76.2776C49.886 76.3029 50.0434 76.3282 50.2008 76.3534Z" fill="#1775A7"/>
<path fill-rule="evenodd" clip-rule="evenodd" d="M80.2176 46.3906C80.0701 46.7051 79.9221 47.0204 79.7742 47.335L79.7593 47.3134C79.9077 46.9988 80.057 46.6835 80.2058 46.369L80.2176 46.3906Z" fill="#E0E5EC"/>
<path fill-rule="evenodd" clip-rule="evenodd" d="M114.854 42.2413C114.59 43.7786 114.029 45.2791 112.63 46.2549C112.265 46.5089 111.54 46.2618 110.98 46.2451C111.037 45.79 110.922 45.1825 111.178 44.9039C112.717 43.2278 112.727 41.6664 111.137 40.0135C110.896 39.7622 111.056 39.1371 111.03 38.6852C111.432 38.6852 111.876 38.5733 112.227 38.7047C113.815 39.302 114.641 40.4997 114.854 42.2413Z" fill="#0E5A82"/>
<path fill-rule="evenodd" clip-rule="evenodd" d="M154.563 180.384L158.353 166.189L163.28 165.189L161.763 179.985C159.869 181.184 154.563 180.384 154.563 180.384Z" fill="#19ACFC"/>
<path fill-rule="evenodd" clip-rule="evenodd" d="M171.566 176.782L170.059 163.45C171.566 162.871 174.956 162.291 174.956 162.291L176.839 175.236L171.566 176.782Z" fill="#19ACFC"/>
<path fill-rule="evenodd" clip-rule="evenodd" d="M181.681 175.574L184.114 162.291C186.546 163.096 190.398 165.31 190.398 165.31C188.979 167.926 184.114 176.782 184.114 176.782L181.681 175.574Z" fill="#19ACFC"/>
<path fill-rule="evenodd" clip-rule="evenodd" d="M187.492 180.683L197.24 171.951C198.153 173.129 200.083 175.581 200.083 175.581L189.32 184.51L187.492 180.683Z" fill="#19ACFC"/>
<path fill-rule="evenodd" clip-rule="evenodd" d="M203.668 179.68C203.668 179.68 196.216 192.942 197.281 193.433C198.829 194.415 202.798 196.872 203.862 197.068C204.733 193.827 206.862 181.448 206.862 181.448L203.668 179.68Z" fill="#19ACFC"/>
<path fill-rule="evenodd" clip-rule="evenodd" d="M213.952 182.679L210.736 198.772C212.444 199.076 218.272 199.076 219.277 198.772C220.281 198.469 216.664 182.578 216.664 182.578C215.66 182.881 213.952 182.679 213.952 182.679Z" fill="#19ACFC"/>
<path fill-rule="evenodd" clip-rule="evenodd" d="M221.39 180.596L229.395 194.17C230.877 193.179 235.424 188.622 235.917 187.829C234.83 186.541 223.367 178.714 223.367 178.714L221.39 180.596Z" fill="#19ACFC"/>
<path fill-rule="evenodd" clip-rule="evenodd" d="M224.599 173.111L242.003 176.782C242.711 175.332 244.634 168.087 244.634 168.087H224.295C224.7 169.247 224.599 173.111 224.599 173.111Z" fill="#19ACFC"/>
<path fill-rule="evenodd" clip-rule="evenodd" d="M222.558 159.393C222.558 159.393 244.634 157.219 244.634 156.428C244.34 154.155 241.789 143.083 237.668 139.92C234.28 137.32 230.113 136.362 226.581 137.943C223.049 139.525 222.339 141.643 221.675 145.851C220.694 152.079 222.558 159.393 222.558 159.393Z" fill="#19ACFC"/>
<path fill-rule="evenodd" clip-rule="evenodd" d="M5.2365 100.466C4.45446 104.359 3.47656 109.482 3.47656 113.99C11.8859 113.99 23.8151 109.278 23.8151 109.278L5.2365 100.466Z" fill="#1275A9"/>
<path fill-rule="evenodd" clip-rule="evenodd" d="M5.41357 128.1C6.59657 134.537 10.146 144.485 11.7235 147.801C20.9909 140.779 38.3427 127.515 38.3427 127.515L5.41357 128.1Z" fill="#1275A9"/>
<path fill-rule="evenodd" clip-rule="evenodd" d="M18.0042 159.769C19.7782 162.721 27.0722 170.985 27.0722 170.985C30.6208 167.443 40.2797 149.733 40.2797 149.733L18.0042 159.769Z" fill="#1275A9"/>
<path fill-rule="evenodd" clip-rule="evenodd" d="M40.2798 181.714C43.1851 183.951 48.2215 186.391 50.5457 187.408C52.0953 182.12 52.8703 168.087 52.8703 168.087L40.2798 181.714Z" fill="#1275A9"/>
<path fill-rule="evenodd" clip-rule="evenodd" d="M27.6892 26.5748C31.6193 24.302 34.7635 22.597 37.3182 22.2184C38.104 25.6276 41.2483 31.8786 41.2483 31.8786L27.6892 26.5748Z" fill="#1275A9"/>
<path fill-rule="evenodd" clip-rule="evenodd" d="M65.4609 54.5801C65.4609 56.4472 63.9434 57.9612 62.0714 57.9612C60.1993 57.9612 58.6814 56.4472 58.6814 54.5801C58.6814 52.713 60.1993 51.199 62.0714 51.199C63.9434 51.199 65.4609 52.713 65.4609 54.5801Z" fill="black"/>
<path fill-rule="evenodd" clip-rule="evenodd" d="M81.9253 44.9199C81.9253 46.787 80.4077 48.301 78.5355 48.301C76.6634 48.301 75.1458 46.787 75.1458 44.9199C75.1458 43.0528 76.6634 41.5388 78.5355 41.5388C80.4077 41.5388 81.9253 43.0528 81.9253 44.9199Z" fill="black"/>
<path d="M48.9963 64.7233L36.4058 68.5874" stroke="#231F20" stroke-width="3" stroke-linecap="round"/>
<path d="M52.8703 67.6214L44.1538 76.3156" stroke="#231F20" stroke-width="3" stroke-linecap="round"/>
<path d="M57.7129 69.5534L54.8074 82.1117" stroke="#231F20" stroke-width="3" stroke-linecap="round"/>
<path d="M82.8938 32.8447L85.7993 20.2864" stroke="#231F20" stroke-width="3" stroke-linecap="round"/>
<path d="M86.7678 37.6748L94.5159 27.0486" stroke="#231F20" stroke-width="3" stroke-linecap="round"/>
<path d="M89.6733 41.5389L102.264 37.6748" stroke="#231F20" stroke-width="3" stroke-linecap="round"/>
<defs>
<filter id="filter0_i" x="97" y="49" width="84.714" height="86.714" filterUnits="userSpaceOnUse" color-interpolation-filters="sRGB">
<feFlood flood-opacity="0" result="BackgroundImageFix"/>
<feBlend mode="normal" in="SourceGraphic" in2="BackgroundImageFix" result="shape"/>
<feColorMatrix in="SourceAlpha" type="matrix" values="0 0 0 0 0 0 0 0 0 0 0 0 0 0 0 0 0 0 127 0" result="hardAlpha"/>
<feOffset dy="2"/>
<feGaussianBlur stdDeviation="4"/>
<feComposite in2="hardAlpha" operator="arithmetic" k2="-1" k3="1"/>
<feColorMatrix type="matrix" values="0 0 0 0 0 0 0 0 0 0 0 0 0 0 0 0 0 0 0.04 0"/>
<feBlend mode="normal" in2="shape" result="effect1_innerShadow"/>
</filter>
<clipPath id="clip0">
<rect width="69.389" height="69.389" fill="white" transform="translate(114.592 49) rotate(14.6864)"/>
</clipPath>
</defs>
</svg>
