<svg width="246" height="236" viewBox="0 0 246 236" fill="none" xmlns="http://www.w3.org/2000/svg">
<path d="M159.638 202.145C160.64 200.453 162.555 200.806 164.026 200.395C168.743 199.072 173.476 197.93 177.511 194.93C177.93 194.618 178.653 194.725 179.237 194.635C180.379 199.992 178.629 204.298 174.462 207.709C172.737 209.122 171.077 210.642 169.244 211.891C164.618 215.055 160.64 218.753 158.167 223.897C157.543 225.341 156.547 226.594 155.281 227.528C154.015 228.462 152.524 229.044 150.96 229.214C145.348 229.987 142.258 227.324 142.282 221.539C142.504 220.619 142.734 219.698 142.956 218.786L142.907 218.893C143.236 218.26 143.556 217.627 143.877 216.995L143.794 217.06L146.679 214.455C148.018 213.543 149.3 212.524 150.714 211.752C153.562 210.158 155.94 207.843 157.608 205.038C158.225 204.035 158.931 203.107 159.638 202.145Z" fill="#00A888"/>
<path d="M181.538 191.339C176.081 199.097 164.823 201.85 156.113 203.962C155.135 204.2 144.411 204.783 144.419 204.98C144.345 203.945 144.214 202.918 144.189 201.882C144.057 196.205 142.225 190.697 138.93 186.072C135.864 181.518 132.158 177.43 127.926 173.934C127.335 171.469 126.735 169.004 126.143 166.539C126.784 169.193 146.687 155.453 148.174 153.81C154.379 147.071 158.151 138.328 160.09 129.444C163.377 114.439 165.152 101.858 178.933 92.7857C179.706 92.3603 180.511 91.995 181.341 91.6928C181.423 93.4595 181.472 95.2181 181.604 96.9767C181.71 98.2915 182.195 99.1461 183.822 99.0804C185.137 99.0915 186.445 99.2626 187.718 99.5899C191.473 100.412 193.889 99.2283 195.113 95.7276C195.582 94.173 195.858 92.5668 195.935 90.945C195.988 89.4956 195.964 88.0445 195.861 86.5979C199.148 85.0529 202.608 85.546 205.985 85.661C213.187 85.8724 220.171 88.183 226.077 92.3091C239.431 101.554 244.411 119.518 245.413 134.901C246.49 151.402 241.97 168.642 232.265 182.111C227.46 188.878 221.198 194.48 213.94 198.505C205.533 203.066 198.17 210.404 192.796 218.408C191.22 220.569 190.007 222.973 189.205 225.524C188.054 229.872 185.375 232.468 181.415 234.046C180.322 234.49 179.163 234.745 178.029 235.09C177.856 232.271 175.901 229.337 178.67 226.7C178.67 226.7 177.947 225.623 177.692 225.672C176.989 225.805 176.347 226.159 175.86 226.683C173.879 229.239 174.101 232.049 176.394 235.155C172.983 235.517 169.647 235.632 167.297 232.444C168.02 231.449 168.546 230.422 167.847 229.157C166.943 227.554 167.667 226.346 168.833 225.27C169.368 224.777 169.951 224.325 170.477 223.823C170.754 223.542 171.012 223.243 171.249 222.928C170.789 222.599 170.37 222.057 169.869 221.974C167.732 221.638 166.228 222.895 165.686 225.524C165.399 226.946 165.366 228.425 165.21 229.872C162.522 225.311 163.336 220.931 167.913 217.981C170.785 216.113 173.895 214.637 177.158 213.593C179.311 212.972 181.302 211.889 182.994 210.42C184.685 208.952 186.037 207.132 186.953 205.087C189.468 199.861 190.035 190.707 183.609 187.871C183.798 188.019 182.54 189.909 181.538 191.339Z" fill="#00CCA8"/>
<path d="M122.174 159.028L122.026 159.126C118.846 161.115 114.072 163.786 111.984 158.756C108.607 150.588 114.671 142.182 119.775 136.248C124.516 130.734 134.451 123.528 139.497 132.772C142.661 138.615 143.564 146.578 141.19 152.881C140.489 154.986 138.986 156.728 137.007 157.729C132.101 159.899 127.179 156.012 122.174 159.028Z" fill="#050606"/>
<path d="M42.8989 182.768C31.3203 172.299 24.2039 159.43 22.5768 143.833C21.5578 134.137 23.3246 124.933 28.814 116.617C31.0999 119.174 32.5606 122.362 33.0049 125.763C33.0183 126.024 33.1086 126.275 33.2646 126.485C33.4205 126.695 33.6351 126.854 33.8812 126.941C34.1274 127.029 34.394 127.042 34.6476 126.979C34.9011 126.915 35.1302 126.778 35.3058 126.585C35.8769 126.105 36.3825 125.552 36.8097 124.941C38.938 121.999 41.7402 120.783 45.3231 121.498C45.7636 121.564 46.2093 121.589 46.6543 121.572C48.8971 121.613 51.0673 120.777 52.7033 119.242C54.3393 117.708 55.3119 115.595 55.4143 113.354C55.4965 112.179 55.4965 110.996 55.5375 109.813C58.463 110.207 61.4789 110.281 64.3057 111.037C84.0442 116.164 101.427 127.905 113.554 144.302C113.621 144.434 113.671 144.575 113.702 144.721C116.773 149.306 119.593 154.055 122.149 158.946L124.417 166.588L124.565 171.165C122.249 170.181 119.99 169.065 117.802 167.821C114.515 165.733 110.899 165.117 107.243 164.739C105.435 164.55 103.471 165.224 101.671 165.799C101.412 165.851 101.172 165.97 100.974 166.144C100.776 166.319 100.628 166.543 100.544 166.793C100.461 167.043 100.445 167.311 100.498 167.57C100.552 167.828 100.673 168.068 100.849 168.264C102.978 171.067 103.002 174.321 103.011 177.6C103.011 185.143 102.131 192.72 103.832 200.206C103.852 200.503 103.836 200.801 103.783 201.094C101.441 201.472 99.1072 201.866 96.7652 202.219C90.3226 203.197 84.0279 202.006 77.7415 200.88C75.5556 200.486 73.3862 200.058 71.1674 199.614L69.5239 199.187C69.6031 197.337 69.2995 195.489 68.6321 193.762C67.9647 192.034 66.9479 190.462 65.6452 189.145C62.6754 185.996 60.5596 182.141 59.4984 177.945C68.8583 176.178 72.548 170.319 70.0909 161.131C69.8168 160.458 69.7151 159.726 69.7951 159.003C70.0779 158.357 70.578 157.831 71.2085 157.516C71.3564 157.425 72.1371 158.107 72.4 158.568C72.8385 159.344 73.1781 160.172 73.4108 161.033C73.7231 162.175 73.8381 163.367 74.1586 164.509C74.2346 164.698 74.3549 164.866 74.5093 164.999C74.6637 165.132 74.8478 165.226 75.0461 165.273C75.2504 165.252 75.446 165.179 75.6142 165.061C75.7825 164.943 75.9178 164.784 76.0076 164.599C76.2718 163.764 76.3087 162.873 76.1144 162.019C75.2827 159.497 74.1807 157.072 72.8274 154.788C69.6636 150.095 61.9884 149.652 57.9864 153.703C57.8521 153.868 57.7589 154.063 57.7146 154.272C57.6703 154.481 57.6762 154.697 57.7317 154.903C57.8546 155.072 58.0188 155.207 58.2087 155.294C58.3986 155.382 58.6078 155.42 58.8164 155.404C60.8215 154.878 62.769 154.056 64.807 153.76C66.015 153.563 67.8557 153.629 68.4967 154.368C69.5403 155.576 68.0201 156.76 67.2558 157.795C66.7037 158.502 66.0905 159.159 65.4233 159.759C59.0958 165.709 47.7308 167.434 39.9077 163.621C39.0859 163.235 38.3546 162.75 37.5492 162.372C37.352 162.29 36.8425 162.438 36.8014 162.578C36.6946 162.948 36.596 163.605 36.8014 163.736C38.335 164.895 39.9591 165.928 41.658 166.826C42.8003 167.385 43.6714 167.829 43.9343 169.226C44.0576 169.867 44.8218 170.376 45.2902 170.943C43.9569 174.757 43.1523 178.736 42.8989 182.768V182.768ZM88.0957 151.994C89.4015 152.019 90.6995 151.786 91.9154 151.309C93.1314 150.833 94.2416 150.121 95.1825 149.215C96.1234 148.31 96.8767 147.227 97.3992 146.03C97.9217 144.833 98.2034 143.545 98.2279 142.239C98.3923 136.035 93.1988 131.384 87.0849 131.31C81.6942 131.236 77.6675 135.419 77.5936 140.998C77.552 142.414 77.7922 143.823 78.3002 145.145C78.8081 146.466 79.5737 147.674 80.5524 148.697C81.5312 149.72 82.7035 150.538 84.0013 151.104C85.2991 151.67 86.6964 151.972 88.1121 151.994H88.0957Z" fill="#00CCA8"/>
<path d="M27.573 100.173C26.8637 99.7333 26.0902 99.4061 25.2803 99.2037C15.5589 98.2176 13.0114 86.2528 17.8845 79.161C20.9332 74.7563 27.0224 70.8283 32.5036 71.2474C36.0947 71.5186 38.0587 71.5926 39.4392 68.0261C41.1363 63.369 42.0176 58.4541 42.0442 53.4974C42.1839 47.5232 41.6744 34.0957 34.8702 31.5482C31.2134 30.1759 30.2684 27.1272 30.178 23.6758C29.989 16.0252 36.0289 8.56364 41.2553 6.67359C47.0076 4.5781 50.4919 6.13123 52.4395 11.1604C53.3105 13.4038 53.3598 13.3709 55.7676 13.1491C56.6551 13.0669 57.5508 13.0669 58.4465 13.0587C66.1135 12.9765 71.1345 19.2712 69.3102 26.7903C68.1104 31.7208 65.2671 35.4269 60.3859 37.1526C57.6576 38.1223 56.2771 40.2507 55.2992 42.905C50.9685 54.2863 50.3686 65.9882 51.9135 77.953C52.3902 81.7577 56.5647 83.2287 57.937 86.6719C58.3865 87.8716 58.5687 89.155 58.4707 90.4324C58.3728 91.7099 57.9971 92.9505 57.37 94.0677C56.2517 95.9524 54.5621 97.4319 52.5463 98.2915C51.4533 98.8175 47.2295 101.283 46.2927 100.938C44.5013 100.288 42.7016 99.6721 40.9348 98.9818C39.1479 98.2358 37.1773 98.0468 35.2811 98.4395C32.7254 98.9325 30.1533 99.5653 27.573 100.173Z" fill="#E5E5E5"/>
<path d="M104.243 200.979C102.156 193.345 102.978 185.686 102.961 177.624C102.961 174.337 102.961 171.091 100.8 168.289C100.624 168.093 100.503 167.853 100.449 167.595C100.396 167.336 100.411 167.068 100.495 166.818C100.578 166.567 100.726 166.344 100.924 166.169C101.122 165.994 101.363 165.875 101.622 165.824C103.421 165.249 105.385 164.575 107.193 164.764C123.711 166.481 140.162 181.109 143.564 197.396C145.471 206.542 144.386 226.404 131.148 226.157C119.643 225.977 109.716 214.751 105.599 204.94C105.059 203.651 104.606 202.328 104.243 200.979V200.979Z" fill="#010403"/>
<path d="M195.836 86.6225C195.94 88.0746 195.964 89.5313 195.91 90.9861C195.833 92.6079 195.557 94.2141 195.089 95.7687C193.897 99.2694 191.481 100.42 187.693 99.631C186.42 99.3037 185.112 99.1326 183.798 99.1215C182.154 99.1872 181.686 98.2997 181.579 97.0178C181.447 95.2592 181.398 93.5006 181.316 91.7339C181.99 84.0915 178.637 78.4871 172.277 74.592C166.664 71.1406 160.427 70.6311 154.091 71.7487C144.871 73.3173 136.511 78.1218 130.515 85.2995C127.269 89.0878 124.426 89.9013 120.374 88.2085C118.522 87.3787 116.993 85.9657 116.02 84.1851C115.046 82.4045 114.682 80.3542 114.984 78.3474C115.342 75.3498 116.452 72.4916 118.213 70.0389C119.973 67.5862 122.325 65.6188 125.05 64.32C139.702 57.2036 155.077 54.5904 171.143 58.9046C175.185 60.0123 178.999 61.8262 182.409 64.2625C188.532 68.4111 192.847 74.7333 194.481 81.9467C194.85 83.5409 195.384 85.0694 195.836 86.6225Z" fill="#050606"/>
<path d="M32.8571 228.22C30.2768 225.533 30.3097 222.385 31.2136 219.082C31.6214 217.552 32.4406 216.164 33.5822 215.067C34.7239 213.97 36.1443 213.207 37.6891 212.861C41.0158 212.081 44.3892 211.516 47.7885 211.168C53.6805 210.347 59.6629 210.026 65.4727 208.826C69.1789 208.062 72.6467 206.09 76.2131 204.66C83.5413 209.056 92.1635 210.783 100.619 209.55C100.496 213.33 98.2199 215.869 95.508 217.997C91.5078 221.114 86.7246 223.064 81.686 223.635C78.305 224.098 74.8898 224.263 71.4798 224.128C68.364 223.872 65.2287 224.25 62.2629 225.238C59.297 226.227 56.5621 227.806 54.2229 229.88C53.1135 230.85 51.9055 231.721 50.7468 232.633C50.1798 232.189 49.5881 231.77 49.0458 231.302C46.6791 229.247 46.7038 227.563 49.2101 225.607C49.7278 225.196 50.8536 225.163 50.2127 224.234C49.9333 223.824 48.8157 223.7 48.2076 223.873C45.808 224.563 43.8194 228.886 45.0685 230.743C46.145 232.337 47.4351 233.849 49.7278 233.529C44.1481 235.065 38.856 235.098 34.476 230.521C34.297 230.285 34.1428 230.032 34.0158 229.765V229.765C35.2813 230.003 36.629 230.168 35.9716 228.187C35.0594 225.467 35.8319 223.257 37.6151 221.194C38.0215 220.762 38.3951 220.301 38.7327 219.813C38.8724 219.608 38.9217 219.107 38.7902 218.992C38.4942 218.685 38.0905 218.505 37.6644 218.49C37.0844 218.592 36.5423 218.847 36.0948 219.23C33.3502 221.58 32.6188 224.645 33.0379 228.097L32.8571 228.22Z" fill="#00CCA8"/>
<path d="M53.327 200.872C46.1567 203.575 38.263 203.665 31.0327 201.126C29.0769 200.436 27.1951 199.483 25.2804 198.661C21.6236 197.018 17.8271 196.295 13.9977 197.733C11.6803 198.612 9.5766 198.086 7.56329 197.314C0.644074 194.651 -2.14169 185.653 1.81097 179.391C2.4847 178.224 3.46132 177.262 4.63742 176.605C5.81353 175.948 7.14535 175.622 8.49187 175.66C11.1892 175.566 13.8615 176.205 16.2246 177.509C18.1768 178.593 20.0595 179.798 21.8619 181.117C27.9429 185.71 34.4512 187.789 41.9292 184.962C43.7125 184.962 43.9508 186.425 44.3206 187.641C45.4966 191.582 47.6639 195.156 50.6152 198.02C51.5438 198.941 52.4231 199.918 53.327 200.872Z" fill="#00A888"/>
<path d="M27.6883 100.321C30.1536 98.4394 36.1524 98.4477 38.9875 98.7353C42.536 99.1968 45.8914 100.617 48.6925 102.844C50.9523 104.553 53.5491 106.378 54.8557 108.958C56.4992 112.155 55.1926 116.395 52.6862 118.819C50.4264 121.005 47.1476 121.572 44.1153 121.416C42.6918 121.304 41.2642 121.574 39.98 122.198C38.6957 122.822 37.6013 123.777 36.8099 124.966C36.3827 125.577 35.8771 126.13 35.306 126.609C35.1304 126.803 34.9013 126.94 34.6478 127.004C34.3942 127.067 34.1276 127.054 33.8814 126.966C33.6353 126.878 33.4207 126.719 33.2647 126.51C33.1088 126.3 33.0184 126.049 33.0051 125.788C32.5608 122.386 31.1001 119.199 28.8141 116.641C28.3143 115.749 27.7656 114.885 27.1706 114.053C24.3273 110.437 23.7767 106.83 25.9133 102.672C26.2817 101.872 26.7943 101.148 27.4254 100.535L27.6883 100.321Z" fill="#050606"/>
<path d="M53.6394 200.411C49.0904 197.261 45.7444 192.66 44.1481 187.362C42.5046 181.873 43.2359 176.186 45.2739 170.927C46.4901 169.176 47.7392 167.64 50.3195 168.256C51.6501 168.441 53.0052 168.317 54.2804 167.894C55.9239 167.484 56.3183 168.248 56.7456 169.538C58.2659 174.542 59.6629 180.221 62.3501 184.732C65.3166 189.712 69.7459 192.818 69.524 199.187C69.4583 200.831 65.6453 204.323 64.1661 204.619C63.2496 204.731 62.3194 204.61 61.4626 204.266C58.678 203.376 56.0413 202.077 53.6394 200.411Z" fill="#F9665E"/>
<path d="M100.586 209.533C92.1305 210.766 83.5083 209.039 76.1801 204.644L71.1345 199.639C73.3122 200.058 75.4816 200.51 77.7086 200.905C83.9951 202.03 90.2897 203.222 96.7323 202.244C99.0743 201.891 101.408 201.496 103.75 201.118L106.955 207.61L100.586 209.533Z" fill="#B64B45"/>
<path d="M181.645 191.405C177.339 191.356 176.394 184.091 175.843 180.985C174.643 174.091 175.071 166.465 177.667 159.932C179.596 154.797 182.495 150.082 186.206 146.044C190.799 141.261 195.615 140.021 202.131 140.768C200.751 140.612 199.345 141.311 198.022 141.59C192.377 142.872 189.443 145.584 186.107 150.177C179.253 159.611 175.736 173.746 182.154 184.223C182.737 185.042 183.178 185.953 183.461 186.918C183.822 188.628 182.458 190.041 181.645 191.405Z" fill="#005D4D"/>
<path d="M137.607 53.8098C134.743 52.9957 131.71 52.9957 128.847 53.8098C125.814 54.6316 122.848 55.6999 121.13 58.7404C121 58.8881 120.835 58.9997 120.649 59.0645C120.463 59.1293 120.264 59.145 120.07 59.1102C119.742 58.9458 119.331 58.2884 119.421 58.0665C119.816 56.9818 120.111 55.6588 120.917 54.9767C125.51 51.0323 130.95 49.9804 136.834 50.8679C137.283 50.9166 137.702 51.1199 138.018 51.4431C138.415 51.9825 138.661 52.6178 138.732 53.2839C138.741 53.4236 137.853 53.6865 137.607 53.8098Z" fill="#252121"/>
<path d="M77.3553 28.0312C76.8726 27.0132 76.4501 25.9678 76.0898 24.9003C76.0666 24.635 76.0992 24.3678 76.1855 24.1158C76.2718 23.8639 76.41 23.6328 76.5911 23.4376C76.7472 23.2486 77.5608 23.3225 77.7744 23.5526C78.5329 24.2441 79.1425 25.0829 79.5659 26.0179C81.045 30.3732 78.1853 36.6432 73.9697 38.4757C73.4197 38.681 72.8391 38.7921 72.2522 38.8044C72.1088 38.8036 71.9681 38.7652 71.8441 38.6931C71.7202 38.621 71.6172 38.5178 71.5455 38.3936C71.4469 38.0238 71.3976 37.4157 71.603 37.2349C72.2686 36.6597 73.1315 36.3063 73.8053 35.7393C75.9337 33.8657 76.9445 31.4168 77.3553 28.0312Z" fill="#252121"/>
<path d="M129.208 94.3307C131.299 94.5941 133.412 94.0504 135.117 92.8104C135.972 92.3276 136.663 91.6003 137.103 90.7218C137.542 89.8434 137.709 88.8538 137.582 87.8799C137.582 87.5922 138.174 86.9513 138.404 86.9924C138.921 87.1156 139.751 87.5101 139.768 87.8141C139.96 89.1054 139.87 90.4231 139.505 91.6764C137.861 95.5633 131.928 97.741 128.074 95.9824C127.622 95.777 127.359 95.1606 127.006 94.7087C127.451 94.4749 127.912 94.2744 128.386 94.1088C128.592 94.0924 128.912 94.2731 129.208 94.3307Z" fill="#252121"/>
<path d="M128.978 42.8392C130.264 43.2173 131.526 43.6701 132.758 44.1951C132.964 44.3757 133.122 44.6049 133.216 44.8618C133.311 45.1187 133.34 45.3951 133.301 45.6661C133.143 45.8727 132.934 46.0354 132.695 46.139C132.457 46.2425 132.196 46.2834 131.937 46.2578C129.97 45.5371 127.825 45.4651 125.814 46.0523C123.62 46.6522 121.574 47.3918 119.988 49.0928C119.446 49.6681 118.682 50.194 118.172 49.3311C118.067 48.9984 118.048 48.6444 118.117 48.3024C118.186 47.9603 118.341 47.6414 118.567 47.3753C119.865 46.172 121.336 45.1693 122.93 44.4006C124.903 43.7262 126.925 43.2042 128.978 42.8392V42.8392Z" fill="#252121"/>
<path d="M24.3272 6.40234C24.6845 6.65877 25.0174 6.94761 25.3216 7.26519C25.3709 7.33093 25.1079 7.7829 24.9025 7.91438C21.0484 10.3304 19.6597 13.7571 20.5307 18.1864C20.5965 18.5233 20.2678 19.23 20.0541 19.2547C19.5067 19.3205 18.9524 19.2142 18.4681 18.9506C18.1039 18.6811 17.8475 18.2908 17.745 17.8494C16.6685 14.4967 19.0516 8.62109 22.1742 6.97757C22.8697 6.71066 23.5913 6.51785 24.3272 6.40234V6.40234Z" fill="#252121"/>
<path d="M137.434 101.8C137.058 101.722 136.692 101.604 136.341 101.447C136.111 101.332 135.815 100.987 135.848 100.79C135.898 100.428 136.103 99.894 136.374 99.7954C137.379 99.5837 138.37 99.3093 139.341 98.9736C141.535 97.8642 144.09 96.9849 143.959 93.7472C143.959 93.4349 144.444 92.8186 144.666 92.835C145.192 92.8761 146.005 93.0898 146.145 93.4514C146.493 94.2244 146.58 95.09 146.391 95.9166C145.331 98.9161 140.853 101.792 137.434 101.8Z" fill="#252121"/>
<path d="M86.2057 28.9269C85.8277 27.9983 85.3346 26.9218 84.9895 25.8042C84.96 25.6022 84.9822 25.396 85.0541 25.2048C85.1259 25.0137 85.2451 24.8439 85.4003 24.7113C85.5958 24.6187 85.8108 24.5749 86.0268 24.5835C86.2429 24.592 86.4537 24.6528 86.6412 24.7606C87.3397 25.492 88.219 26.2891 88.4326 27.2259C88.8725 28.8125 88.8585 30.4906 88.3922 32.0697C87.9259 33.6487 87.026 35.0653 85.7948 36.1584C85.4332 36.4871 84.7101 36.4296 84.1513 36.5446C84.0096 36.0085 83.9816 35.4487 84.0691 34.9011C84.595 33.537 85.3264 32.2386 85.8934 30.8745C86.0631 30.2375 86.1677 29.585 86.2057 28.9269Z" fill="#252121"/>
<path d="M8.63159 8.94991C8.63159 5.26843 10.8421 1.67734 13.6032 0.674795C14.0881 0.502225 14.7208 0.765188 15.2468 0.822712C15.1317 1.30755 15.181 2.02248 14.8687 2.25257C12.0912 4.29054 10.8339 6.89552 11.442 10.3633C11.4431 10.6323 11.3758 10.897 11.2464 11.1328C11.117 11.3685 10.9298 11.5675 10.7024 11.711C10.4299 11.7196 10.1595 11.6603 9.91565 11.5383C9.67178 11.4164 9.46208 11.2357 9.30543 11.0125C8.99814 10.3548 8.77187 9.6622 8.63159 8.94991Z" fill="#252121"/>
<path d="M49.7031 233.52C47.4104 233.841 46.1202 232.329 45.0437 230.735C43.7947 228.877 45.7833 224.555 48.1828 223.865C48.7909 223.692 49.9085 223.815 50.1879 224.226C50.8289 225.155 49.7031 225.188 49.1854 225.599C46.7201 227.554 46.6544 229.239 49.021 231.293C49.5634 231.762 50.1551 232.181 50.7221 232.625L49.7031 233.52Z" fill="#005D4D"/>
<path d="M165.185 229.929C165.341 228.483 165.374 227.004 165.662 225.582C166.204 222.953 167.708 221.695 169.844 222.032C170.346 222.114 170.765 222.657 171.225 222.985C170.987 223.301 170.729 223.6 170.453 223.881C169.918 224.382 169.335 224.834 168.809 225.327C167.642 226.404 166.919 227.612 167.823 229.214C168.521 230.447 167.995 231.474 167.272 232.501L165.185 229.929Z" fill="#005D4D"/>
<path d="M176.361 235.18C174.068 232.074 173.846 229.263 175.827 226.708C176.314 226.184 176.956 225.83 177.659 225.697C177.914 225.648 178.645 226.716 178.637 226.724C175.868 229.337 177.815 232.296 177.996 235.114L176.361 235.18Z" fill="#005D4D"/>
<path d="M127.926 173.934L124.533 171.173L124.417 166.588H126.176C126.735 169.053 127.335 171.518 127.926 173.934Z" fill="#B64B45"/>
<path d="M122.552 223.733L124.196 224.612L122.552 223.733Z" fill="#D2CFC3"/>
<path d="M133.342 226.363L134.985 225.681L133.342 226.363Z" fill="#D2CFC3"/>
<path d="M34.0238 229.757L32.8569 228.22L33.0213 228.105L33.9827 229.748L34.0238 229.757Z" fill="#02BA7F"/>
<path d="M136.884 224.571L137.746 223.791L136.884 224.571Z" fill="#D2CFC3"/>
<path d="M135.799 225.344L136.785 224.645L135.799 225.344Z" fill="#D2CFC3"/>
<path d="M59.4984 177.945C58.5534 175.159 57.5427 172.381 56.688 169.563C56.2854 168.24 55.8663 167.476 54.2227 167.919C52.9476 168.342 51.5924 168.465 50.2619 168.281C47.6569 167.689 46.4325 169.201 45.2163 170.952C44.7479 170.385 43.9836 169.875 43.8604 169.234C43.5974 167.837 42.7263 167.393 41.5841 166.835C39.8851 165.936 38.261 164.903 36.7275 163.745C36.5385 163.613 36.6371 162.923 36.7275 162.586C36.7686 162.446 37.2781 162.298 37.4753 162.381C38.297 162.759 39.0366 163.243 39.8337 163.63C47.6569 167.443 59.0218 165.717 65.3494 159.767C66.0166 159.168 66.6298 158.511 67.1819 157.803C67.9461 156.768 69.4664 155.585 68.4227 154.377C67.7818 153.637 65.9575 153.555 64.733 153.769C62.6951 154.097 60.7475 154.919 58.7424 155.412C58.5339 155.428 58.3246 155.391 58.1348 155.303C57.9449 155.215 57.7806 155.08 57.6577 154.911C57.6022 154.705 57.5964 154.489 57.6407 154.28C57.685 154.072 57.7781 153.877 57.9124 153.711C61.9144 149.66 69.5896 150.104 72.7534 154.796C74.1067 157.081 75.2088 159.505 76.0405 162.027C76.2347 162.882 76.1979 163.772 75.9336 164.608C75.8439 164.792 75.7085 164.951 75.5403 165.069C75.372 165.187 75.1765 165.26 74.9722 165.281C74.7739 165.234 74.5898 165.14 74.4354 165.007C74.2809 164.874 74.1607 164.706 74.0847 164.517C73.7642 163.375 73.6491 162.183 73.3369 161.041C73.1041 160.18 72.7646 159.352 72.3261 158.576C72.0631 158.116 71.2825 157.434 71.1346 157.524C70.504 157.839 70.0039 158.366 69.7211 159.011C69.6411 159.734 69.7428 160.466 70.017 161.14C72.5808 170.319 68.8911 176.178 59.4984 177.945Z" fill="#050606"/>
<path d="M88.1121 151.993C86.695 151.974 85.2959 151.674 83.9962 151.109C82.6965 150.544 81.5222 149.726 80.5417 148.702C79.5613 147.679 78.7942 146.471 78.2852 145.148C77.7763 143.826 77.5355 142.415 77.5771 140.998C77.6511 135.419 81.6859 131.236 87.0684 131.31C93.1823 131.384 98.3758 136.035 98.2115 142.239C98.1618 144.871 97.0708 147.375 95.1777 149.204C93.2845 151.032 90.7437 152.035 88.1121 151.993V151.993ZM86.3699 133.216C85.7373 133.207 85.1094 133.326 84.5238 133.565C83.9383 133.805 83.407 134.16 82.962 134.61C82.5169 135.059 82.1672 135.594 81.9338 136.182C81.7005 136.77 81.5882 137.399 81.6037 138.032C81.6899 139.529 82.3237 140.943 83.3843 142.004C84.445 143.064 85.8585 143.698 87.356 143.784C88.0258 143.805 88.6924 143.684 89.312 143.429C89.9316 143.174 90.49 142.79 90.9504 142.303C91.4109 141.816 91.7629 141.237 91.9833 140.604C92.2037 139.972 92.2875 139.299 92.2291 138.632C92.2149 137.887 92.0503 137.152 91.7452 136.472C91.44 135.792 91.0006 135.181 90.4534 134.675C89.9062 134.17 89.2624 133.78 88.5607 133.529C87.8589 133.278 87.1138 133.172 86.3699 133.216V133.216Z" fill="white"/>
<path d="M141.263 219.238L143.006 214.595Z" fill="#D2CFC3"/>
<path d="M141.346 219.181L140.376 221.079L141.346 219.181Z" fill="#D2CFC3"/>
<path d="M34.0239 229.748L33.0624 228.105C32.6433 224.653 33.3747 221.588 36.1193 219.238C36.5668 218.855 37.1089 218.6 37.6889 218.499C38.115 218.513 38.5187 218.693 38.8147 219C38.9462 219.107 38.8969 219.608 38.7572 219.822C38.4196 220.309 38.046 220.77 37.6396 221.202C35.8399 223.24 35.0675 225.475 35.9961 228.195C36.596 230.151 35.2483 229.987 34.0239 229.748Z" fill="#005D4D"/>
<path d="M86.37 133.216C87.1132 133.174 87.8572 133.283 88.5576 133.535C89.2579 133.787 89.9001 134.178 90.4457 134.685C90.9912 135.191 91.4289 135.802 91.7326 136.482C92.0362 137.162 92.1995 137.896 92.2127 138.64C92.2711 139.308 92.1873 139.98 91.9669 140.613C91.7465 141.246 91.3945 141.824 90.9341 142.311C90.4736 142.798 89.9152 143.182 89.2956 143.437C88.6761 143.692 88.0094 143.814 87.3397 143.792C85.8421 143.706 84.4286 143.072 83.3679 142.012C82.3073 140.951 81.6736 139.538 81.5873 138.04C81.5706 137.406 81.6825 136.774 81.9164 136.184C82.1503 135.594 82.5013 135.057 82.9482 134.607C83.3952 134.156 83.9288 133.8 84.5168 133.561C85.1049 133.322 85.7353 133.205 86.37 133.216V133.216Z" fill="#050606"/>
</svg>
