<svg width="300" height="185" viewBox="0 0 300 185" fill="none" xmlns="http://www.w3.org/2000/svg">
<path fill-rule="evenodd" clip-rule="evenodd" d="M132.443 126.208C133.638 134.078 136.776 141.196 140.728 148C136.31 146.439 131.769 145.154 127.504 143.246C122.129 140.841 117.028 137.82 111.706 135.284C109.409 134.188 107.786 132.776 107.062 130.301C105.726 125.739 104.233 121.22 102.999 116.63C102.075 113.193 103.55 111.497 106.898 112.131C111.034 112.914 114.422 114.987 115.119 119.504C115.528 122.146 116.58 123.203 119.141 123.593C123.604 124.271 128.012 125.316 132.443 126.208Z" fill="#D8AE17"/>
<path fill-rule="evenodd" clip-rule="evenodd" d="M262.728 163.667C264.955 157.914 268.44 152.257 270.667 146.504C274.833 145.574 277.992 143.017 280.521 139.646C283.592 135.553 286.081 130.927 287.276 125.866C288.026 122.692 288.13 119.403 287.875 116.157C287.692 113.844 286.14 109.918 287.503 108C289.098 108.564 289.328 110.106 289.711 111.535C291.458 118.056 293.197 125.427 294.907 131.958C296.973 133.757 299.981 136.093 299.712 136.365C297.842 138.255 296.145 141.315 294.69 142.865C295.342 145.901 297.32 151.945 297.138 152.518C294.255 152.985 292.084 153.691 291.319 153.772C291.537 157.483 291.429 158.944 291.423 162.651C288.602 162.43 285.993 162.542 283.578 162.549C283.647 163.378 283.71 164.679 283.96 166.989C283.608 167.186 268.786 164.775 262.728 163.667Z" fill="#D19910"/>
<path fill-rule="evenodd" clip-rule="evenodd" d="M174.197 170.88C168.969 168.668 163.742 166.456 158.515 164.242C155.693 163.047 153.663 163.121 152.052 165.799C150.181 168.908 147.701 169.149 144.786 169.11C140.82 169.057 136.854 169.097 132.888 169.053C131.572 169.038 130.246 168.972 128.944 168.781C123.358 167.961 123.665 160.954 127.862 158.404C130.229 156.966 133.09 156.809 135.828 156.687C135.964 156.681 145.546 155.771 144.639 154.822C131.279 140.86 129.807 125.714 131.101 107.143C150.938 117.25 170.735 116.689 190.118 106.153C200.158 100.696 207.263 91.9031 208.706 80C212.283 83.2888 215.442 86.0936 217.746 90.6521C219.668 94.4549 221.143 98.5141 223.402 102.111C229.094 111.176 237.859 114.088 247.483 116.229C256.558 118.249 265.884 120.167 269.895 130.047C272.021 135.287 271.801 140.792 271.618 146.295C268.342 154.815 266.022 163.253 259.719 169.869C253.937 175.938 246.282 179.946 238.359 181.983C226.14 185.124 211.431 184.846 199.513 180.456C196.684 179.414 194.522 179.619 192.431 182.021C191.639 182.931 190.159 183.194 188.992 183.752C186.818 179.817 186.818 179.817 188.392 175.202C185.215 175.959 184.014 176.805 183.639 178.824C183.095 181.749 185.185 182.94 187.089 184.219C182.244 186.097 178.44 184.495 175.379 180.418" fill="#FFCC1B"/>
<path fill-rule="evenodd" clip-rule="evenodd" d="M123.091 169.612L178.706 169L179.728 178.384L122.728 180L123.091 169.612Z" fill="#0F5980"/>
<path fill-rule="evenodd" clip-rule="evenodd" d="M189.149 162.053C184.724 161.871 179.01 161.871 176.613 166.967C174.217 172.062 174.586 176.066 175.138 177.885C175.692 179.705 177.719 182.981 180.116 183.528C182.512 184.073 186.384 184.619 190.254 182.253C194.125 179.888 189.149 162.053 189.149 162.053Z" fill="#FFCC1B"/>
<path fill-rule="evenodd" clip-rule="evenodd" d="M145.728 14.4077C141.205 21.0046 138.57 30.0129 132.977 35.6494C129.873 38.779 125.579 40.5146 121.232 41.2768C114.99 42.3705 108.102 42.1808 101.876 40.9973C94.5865 39.6107 98.1918 34.2774 102.886 32.1855C116.744 26.0115 120.313 14.2745 124.033 1C132.289 4.40006 139.019 9.38724 145.728 14.4077Z" fill="#D19910"/>
<path fill-rule="evenodd" clip-rule="evenodd" d="M128.822 100.713C131.618 101.126 134.405 101.636 137.212 101.935C153.022 103.622 168.501 102.142 183.337 95.945C188.343 93.8535 193.765 92.3042 197.478 87.7016C201.505 84.5252 204.683 80.5867 207.141 76L207.728 79.3629C206.494 91.9339 199.269 100.224 189.181 105.723C169.796 116.293 149.997 116.86 130.16 106.73C128.301 105.066 128.762 102.841 128.822 100.713Z" fill="#F9665E"/>
<path fill-rule="evenodd" clip-rule="evenodd" d="M198.728 89.3345C178.724 107.369 131.597 112.289 112.338 90.9004C102.58 80.0654 106.83 62.4664 115.353 56.4954C125.115 49.6561 130.257 37.7845 135.809 27.4321C142.146 15.619 150.298 5.88019 164.151 6.00111C167.994 6.03486 171.833 6.47694 175.673 6.73342L198.728 89.3345Z" fill="#FFCC1B"/>
<path fill-rule="evenodd" clip-rule="evenodd" d="M178.433 4.76228C183.389 5.36092 188.513 7.66889 192.444 10.5811C196.067 13.264 204.299 2.9068 208.326 1.31606C226.371 -5.81021 236.671 17.6669 240.094 31.8346C241.821 38.9862 250.001 81.2065 234.077 74.5658C231.352 73.4298 229.454 70.8594 226.828 69.5935C223.422 67.9528 215.568 65.7032 212.603 69.1315C211.269 70.6727 210.66 72.721 209.895 74.6333C208.438 78.2802 206.299 81.6314 203.628 84.4486C199.977 88.2996 195.759 87.2518 191.628 84.8472C175.665 75.5529 162.93 60.1008 157.552 41.8782C154.101 30.1809 161.731 4.5959 176.004 4.61052C176.805 4.61164 177.617 4.66392 178.433 4.76228Z" fill="#D19910"/>
<path fill-rule="evenodd" clip-rule="evenodd" d="M0.728455 82.2771L87.8212 81L119.728 180L26.8249 177.916L0.728455 82.2771Z" fill="#16ACFC"/>
<path fill-rule="evenodd" clip-rule="evenodd" d="M58.6284 136.872C59.4647 139.226 61.3538 140.023 63.0834 139.389C64.782 138.766 65.7761 136.945 64.929 134.559C64.0927 132.204 62.184 131.45 60.4854 132.074C58.7559 132.708 57.7813 134.485 58.6284 136.872ZM70.5763 130.904L73.8827 140.506C74.011 140.867 73.8271 141.266 73.4713 141.396L68.7051 143.145C68.3498 143.276 67.9579 143.088 67.8296 142.728C67.6261 142.154 66.8759 142.107 66.5811 142.63C65.904 143.829 64.7289 144.853 63.0442 145.472C58.9363 146.979 54.0635 145.323 52.0678 139.703C50.0722 134.083 52.7249 129.399 56.6336 127.419C62.6428 124.374 68.7338 125.521 70.5763 130.904Z" fill="white"/>
<path fill-rule="evenodd" clip-rule="evenodd" d="M48.6555 129.779C49.4725 132.139 48.6551 134.61 46.8293 135.297C45.0036 135.985 42.8617 134.629 42.0451 132.269C41.2285 129.908 42.0459 127.438 43.8716 126.75C45.697 126.063 47.8389 127.419 48.6555 129.779Z" fill="white"/>
<path fill-rule="evenodd" clip-rule="evenodd" d="M54.9451 119.403C56.087 122.419 55.0594 125.538 52.6498 126.367C50.2401 127.197 47.3606 125.424 46.2192 122.407C45.0773 119.39 46.1044 116.272 48.5145 115.442C50.9242 114.613 53.8037 116.386 54.9451 119.403Z" fill="white"/>
<path fill-rule="evenodd" clip-rule="evenodd" d="M74.4117 121.684C75.2287 124.044 74.4108 126.515 72.5855 127.202C70.7601 127.89 68.6182 126.534 67.8012 124.173C66.9846 121.813 67.802 119.343 69.6273 118.655C71.4531 117.967 73.595 119.324 74.4117 121.684Z" fill="white"/>
<path fill-rule="evenodd" clip-rule="evenodd" d="M65.4086 116.164C66.5505 119.181 65.5225 122.299 63.1133 123.129C60.7032 123.958 57.8242 122.186 56.6828 119.169C55.5404 116.152 56.568 113.034 58.9781 112.204C61.3878 111.375 64.2667 113.148 65.4086 116.164Z" fill="white"/>
<path fill-rule="evenodd" clip-rule="evenodd" d="M86.7285 81.1697C87.7774 81.1697 94.0975 79 94.0975 79C94.0975 79 124.266 173.421 124.685 175.462C125.104 177.503 122.378 179.748 121.12 179.952C119.862 180.156 116.926 179.748 116.297 177.912C115.668 176.075 86.7285 81.1697 86.7285 81.1697Z" fill="#1173A8"/>
<path fill-rule="evenodd" clip-rule="evenodd" d="M173.907 171.691C174.234 160.471 186.726 159.7 194.374 162.273C202.262 164.927 213.343 165.985 219.09 158.119C222.621 153.286 226.416 148.931 230.689 144.776C233.428 142.113 236.526 139.714 240.113 138.601C244.015 137.391 248.894 137.891 251.728 141.173C251.222 141.603 250.203 142.454 249.539 142.181C240.975 138.665 233.131 146.099 227.423 152.332C221.182 159.148 215.118 166.249 205.798 165.959C200.847 165.805 196.247 164.987 191.605 163.248C184.091 160.433 173.614 164.996 175.118 174.64C174.821 172.736 179.031 170.568 180.495 171.158C184.177 172.643 177.245 173.879 176.542 175.693C176.007 177.074 176.171 179.966 175.082 181C174.499 180.363 173.835 179.352 173.777 178.433C173.636 176.198 173.842 173.94 173.907 171.691Z" fill="#C89217"/>
<path fill-rule="evenodd" clip-rule="evenodd" d="M187.98 184C186.23 182.865 184.31 181.809 184.809 179.214C185.154 177.422 186.258 176.671 189.177 176C187.73 180.095 187.73 180.095 189.728 183.586C189.145 183.724 188.563 183.862 187.98 184Z" fill="#CD9517"/>
<path fill-rule="evenodd" clip-rule="evenodd" d="M142.484 77.0453C139.533 73.167 136.404 69.4129 133.697 65.3626C132.098 62.9706 132.515 62.2676 134.682 60.9799C140.149 57.732 151.913 58.6167 156.692 62.6343C158.912 64.501 159.448 66.6649 157.646 68.193C153.666 71.569 149.478 74.686 145.35 77.877C145.107 78.0649 144.654 77.9656 144.299 78C143.694 77.6818 143.09 77.3635 142.484 77.0453Z" fill="#F9665E"/>
<path fill-rule="evenodd" clip-rule="evenodd" d="M144.675 78L146.725 78.9633C146.612 81.0416 146.446 83.1187 146.396 85.1988C146.29 89.6582 147.109 90.9418 151.14 91.5523C157.042 92.4457 162.696 92.3614 165.569 85.2337C165.726 84.8442 166.696 84.4282 167 84.5991C167.403 84.8261 167.78 85.6509 167.723 86.1633C167.372 89.3253 165.627 91.5204 163.005 92.863C157.531 95.6661 151.914 95.7793 146.55 92.8003C144.697 91.7714 143.344 91.3765 141.264 91.9557C136.08 93.3976 131.469 91.8328 127.94 87.5414C126.84 86.2042 126.144 84.3294 125.75 82.578C125.569 81.7677 126.559 80.6617 127.018 79.6906C127.437 80.5058 128.068 81.2746 128.239 82.1458C129.091 86.477 132.211 88.2578 135.68 89.2982C140.62 90.778 143.074 88.7907 143.767 83.321C143.994 81.5365 144.368 79.7731 144.675 78Z" fill="#2D1F04"/>
<path fill-rule="evenodd" clip-rule="evenodd" d="M141.764 54.2083C139.445 58.6299 134.007 60.2729 129.401 57.9428C125.185 55.8103 123.537 51.243 125.642 47.2485C128.029 42.7211 133.543 40.5851 138.201 43.0158C142.365 45.1888 143.912 50.1138 141.764 54.2083Z" fill="#FFFBEE"/>
<path fill-rule="evenodd" clip-rule="evenodd" d="M127.15 52.6021C128.313 50.3067 130.887 49.3888 133.264 50.4211C135.482 51.3838 136.352 53.6479 135.256 55.6078C134.108 57.6599 131.117 58.5994 128.931 57.5952C126.943 56.6811 126.175 54.5264 127.15 52.6021Z" fill="#050606"/>
<path fill-rule="evenodd" clip-rule="evenodd" d="M175.603 56.363C172.898 61.5649 166.554 63.4971 161.18 60.7566C156.261 58.2477 154.338 52.8744 156.794 48.1752C159.579 42.8483 166.011 40.3354 171.447 43.1952C176.304 45.7511 178.108 51.5455 175.603 56.363Z" fill="#FFFBEE"/>
<path fill-rule="evenodd" clip-rule="evenodd" d="M160.15 53.9273C161.313 51.3453 163.886 50.3124 166.264 51.4736C168.482 52.557 169.352 55.1041 168.255 57.3087C167.108 59.6179 164.117 60.6745 161.931 59.5442C159.943 58.5164 159.174 56.0925 160.15 53.9273Z" fill="#050606"/>
<path fill-rule="evenodd" clip-rule="evenodd" d="M152.728 162.853C158.488 164.944 172.561 144.221 169.223 131C168.83 148.095 152.728 162.853 152.728 162.853Z" fill="#C89217"/>
<path fill-rule="evenodd" clip-rule="evenodd" d="M144.728 155C149.977 152.966 158.035 132.081 155.105 128C155.593 135.202 144.728 155 144.728 155Z" fill="#C89217"/>
<path fill-rule="evenodd" clip-rule="evenodd" d="M0.728455 81L7.94033 78.8578L94.7285 78L87.4771 79.8914L0.728455 81Z" fill="#1173A8"/>
</svg>
